<svg width="66" height="60" viewBox="0 0 66 60" fill="none" xmlns="http://www.w3.org/2000/svg">
<path d="M52.8154 4.43066C51.876 2.93653 50.4873 2.58144 49.0779 3.51246C48.9894 3.57071 48.909 3.64012 48.8249 3.70435C48.0787 4.27513 47.3434 4.86798 46.5062 5.29652C45.3511 5.88679 44.3835 6.69452 43.5728 7.69583C42.6049 8.8921 41.4417 9.84302 40.0784 10.5492C37.6503 11.806 35.5819 13.506 33.8524 15.6242C33.7819 15.71 33.7328 15.8432 33.5632 15.8046C33.5447 15.7338 33.5233 15.6615 33.5068 15.5887C33.467 15.4114 33.4317 15.2327 33.392 15.0554C32.6636 11.7827 31.4416 8.78262 28.8342 6.50889C27.6319 5.46054 26.7347 4.11958 25.599 3.00307C24.0591 1.48925 22.3098 0.363258 20.1312 0.0682898C18.424 -0.162944 16.8714 0.163116 15.6572 1.50826C14.4857 2.80434 13.3742 4.15398 12.4863 5.65796C11.0865 8.02943 11.2412 10.4445 12.6578 12.7283C13.6184 14.2772 14.2827 15.8665 14.3118 17.7055C14.3318 18.956 14.815 20.0292 15.6511 20.9559C16.4898 21.8853 17.488 22.6258 18.4721 23.3843C19.0415 23.8236 19.6136 24.2584 20.1949 24.7027C20.0289 24.8662 19.8669 24.8224 19.7238 24.8387C17.0901 25.1485 14.4709 25.5406 11.9147 26.2703C10.3101 26.7281 8.7327 27.2592 7.36724 28.2699C6.42937 28.9642 5.55243 29.7332 4.64676 30.468C2.95557 31.8405 1.54656 33.4434 0.523429 35.3789C-0.376159 37.0798 -0.126231 38.5558 1.351 39.4242C2.74661 40.2447 4.13008 41.1059 5.62233 41.7414C9.03308 43.1939 12.365 42.7804 15.6417 41.2483C17.2135 40.5132 18.5204 39.4129 19.8296 38.3074C20.2222 37.9757 20.611 37.6295 21.0931 37.416C20.9423 37.6883 20.7703 37.9347 20.5938 38.1784C19.003 40.3736 17.9179 42.7942 17.421 45.4628C16.9004 48.2601 16.6108 51.0795 16.7476 53.931C16.8198 55.4339 16.9341 56.9305 17.4386 58.3671C18.0145 60.0053 18.9158 60.3685 20.5039 59.6463C21.8121 59.0507 22.9874 58.2507 24.0743 57.3307C25.5755 56.06 27.1669 54.9643 28.978 54.1689C30.5014 53.4993 31.486 52.3013 31.8995 50.6607C32.0408 50.0985 32.1501 49.5287 32.1277 48.9505C32.1115 48.5254 32.2763 48.4268 32.6739 48.4093C33.8533 48.3568 35.0453 48.3451 36.2035 48.1498C37.5057 47.9303 38.7341 47.9497 39.9948 48.3875C40.9989 48.7364 41.6559 48.42 42.1399 47.4682C42.6365 46.492 43.3138 46.0444 44.4457 46.2682C45.3092 46.4386 45.8487 46.046 46.1719 45.2175C46.372 44.7032 46.455 44.1612 46.5253 43.6208C46.6578 42.5994 46.9225 41.6318 47.4911 40.7564C47.6637 40.49 47.822 40.3794 48.1522 40.4688C48.7818 40.6384 49.4302 40.7316 50.0837 40.7308C52.2513 40.7293 54.407 40.8917 56.5649 41.0756C59.0728 41.2896 61.5595 41.1153 63.9664 40.2966C65.8853 39.6438 66.4122 38.5051 65.6906 36.6196C65.6582 36.5346 65.6138 36.4541 65.5798 36.37C65.0334 35.0358 64.1943 33.883 63.3198 32.7586C60.804 29.5239 57.8966 26.7261 54.3542 24.619C52.1463 23.3053 49.8467 22.4752 47.2289 22.8758C46.8683 22.9313 46.491 22.8809 46.0696 22.8792C46.2292 22.6788 46.3986 22.6596 46.5479 22.5974C46.9798 22.4173 47.4207 22.2635 47.8213 22.0062C48.9521 21.2789 49.6581 20.21 50.1965 19.0237C50.6833 17.9523 51.2774 16.9575 52.0059 16.0358C52.2594 15.7163 52.4864 15.3707 52.6829 15.0127C53.207 14.0567 53.3131 13.0631 52.8955 12.0331C52.787 11.7666 52.6978 11.4918 52.6171 11.2155C52.3089 10.1604 52.6464 9.20309 53.0974 8.27639C53.7509 6.93354 53.5992 5.67248 52.8191 4.43177L52.8154 4.43066Z" fill="#D9D9D9"/>
</svg>
