<svg width="8" height="11" viewBox="0 0 8 11" fill="none" xmlns="http://www.w3.org/2000/svg">
<path d="M3.32809 0.146447C3.52335 -0.0488155 3.83986 -0.0488155 4.03512 0.146447L7.21676 3.32809C7.41202 3.52335 7.41202 3.83986 7.21676 4.03512C7.0215 4.23038 6.70499 4.23038 6.50973 4.03512L4.1816 1.70699V9.29293L6.50973 6.96481C6.70499 6.76954 7.0215 6.76954 7.21676 6.96481C7.41202 7.16007 7.41202 7.47658 7.21676 7.67184L4.03512 10.8535C3.83986 11.0487 3.52335 11.0487 3.32809 10.8535L0.146447 7.67184C-0.0488155 7.47658 -0.0488155 7.16007 0.146447 6.96481C0.341709 6.76954 0.658216 6.76954 0.853478 6.96481L3.1816 9.29293V1.70699L0.853478 4.03512C0.658216 4.23038 0.341709 4.23038 0.146447 4.03512C-0.0488155 3.83986 -0.0488155 3.52335 0.146447 3.32809L3.32809 0.146447Z" fill="#FC6C5F"/>
</svg>
