<svg width="18" height="18" viewBox="0 0 18 18" fill="none" xmlns="http://www.w3.org/2000/svg">
<path opacity="0.1" fill-rule="evenodd" clip-rule="evenodd" d="M8.71 1.74199C6.86197 1.74199 5.08963 2.47611 3.78288 3.78284C2.47613 5.08958 1.742 6.86189 1.742 8.70989C1.742 10.5579 2.47613 12.3302 3.78288 13.6369C5.08963 14.9437 6.86197 15.6778 8.71 15.6778C10.558 15.6778 12.3304 14.9437 13.6371 13.6369C14.9439 12.3302 15.678 10.5579 15.678 8.70989C15.678 6.86189 14.9439 5.08958 13.6371 3.78284C12.3304 2.47611 10.558 1.74199 8.71 1.74199ZM0 8.70989C0 3.89943 3.89947 1.52588e-05 8.71 1.52588e-05C13.5205 1.52588e-05 17.42 3.89943 17.42 8.70989C17.42 13.5204 13.5205 17.4198 8.71 17.4198C3.89947 17.4198 0 13.5204 0 8.70989Z" fill="white"/>
<path fill-rule="evenodd" clip-rule="evenodd" d="M8.70905 1.74199C6.91257 1.73837 5.18482 2.43221 3.88981 3.67732C3.80723 3.75647 3.70986 3.81858 3.60328 3.8601C3.49669 3.90163 3.38297 3.92175 3.2686 3.91932C3.15424 3.9169 3.04147 3.89197 2.93674 3.84596C2.83201 3.79996 2.73737 3.73377 2.65822 3.65119C2.57907 3.56861 2.51696 3.47125 2.47543 3.36466C2.43391 3.25807 2.41379 3.14435 2.41621 3.02999C2.41864 2.91563 2.44357 2.80286 2.48957 2.69814C2.53558 2.59341 2.60177 2.49877 2.68435 2.41961C4.3037 0.863691 6.46333 -0.00364722 8.70905 1.15285e-05C8.94006 1.15285e-05 9.1616 0.091776 9.32494 0.255118C9.48829 0.41846 9.58005 0.639999 9.58005 0.870999C9.58005 1.102 9.48829 1.32354 9.32494 1.48688C9.1616 1.65022 8.94006 1.74199 8.70905 1.74199Z" fill="white"/>
</svg>
