<svg width="19" height="19" viewBox="0 0 19 19" fill="none" xmlns="http://www.w3.org/2000/svg">
<g clip-path="url(#clip0_139_2)">
<path fill-rule="evenodd" clip-rule="evenodd" d="M9.71256 18.9457C7.85328 18.9457 6.98923 18.6743 5.48732 17.5886C4.53732 18.81 1.52899 19.7646 1.3978 18.1315C1.3978 16.9055 1.12637 15.8696 0.818752 14.7386C0.452323 13.3453 0.0361328 11.7936 0.0361328 9.54527C0.0361328 4.1755 4.44232 0.135742 9.6628 0.135742C14.8878 0.135742 18.9818 4.37455 18.9818 9.59503C18.9903 12.0635 18.019 14.4344 16.2812 16.1875C14.5434 17.9406 12.181 18.9326 9.71256 18.9457ZM9.78947 4.77717C7.24709 4.64598 5.26566 6.40574 4.82685 9.16527C4.46494 11.4498 5.10732 14.2319 5.6547 14.3767C5.91709 14.44 6.57756 13.9062 6.98923 13.4946C7.66994 13.9648 8.46262 14.2472 9.28732 14.3134C10.5537 14.3743 11.7933 13.9359 12.7399 13.0925C13.6865 12.2492 14.2644 11.0681 14.3495 9.80312C14.399 8.53556 13.9489 7.29922 13.0961 6.36012C12.2433 5.42103 11.0559 4.85423 9.78947 4.78169V4.77717Z" fill="#FDAFC0"/>
</g>
<defs>
<clipPath id="clip0_139_2">
<rect width="19" height="19" fill="white"/>
</clipPath>
</defs>
</svg>
