<svg width="18" height="18" viewBox="0 0 18 18" fill="none" xmlns="http://www.w3.org/2000/svg">
<path d="M7.2 3.6C7.2 4.55478 6.82072 5.47045 6.14558 6.14558C5.47045 6.82072 4.55478 7.2 3.6 7.2C2.64522 7.2 1.72955 6.82072 1.05442 6.14558C0.379284 5.47045 0 4.55478 0 3.6C0 2.64522 0.379284 1.72955 1.05442 1.05442C1.72955 0.379284 2.64522 0 3.6 0C4.55478 0 5.47045 0.379284 6.14558 1.05442C6.82072 1.72955 7.2 2.64522 7.2 3.6ZM7.2 14.4C7.2 15.3548 6.82072 16.2705 6.14558 16.9456C5.47045 17.6207 4.55478 18 3.6 18C2.64522 18 1.72955 17.6207 1.05442 16.9456C0.379284 16.2705 0 15.3548 0 14.4C0 13.4452 0.379284 12.5295 1.05442 11.8544C1.72955 11.1793 2.64522 10.8 3.6 10.8C4.55478 10.8 5.47045 11.1793 6.14558 11.8544C6.82072 12.5295 7.2 13.4452 7.2 14.4ZM18 3.6C18 4.55478 17.6207 5.47045 16.9456 6.14558C16.2705 6.82072 15.3548 7.2 14.4 7.2C13.4452 7.2 12.5295 6.82072 11.8544 6.14558C11.1793 5.47045 10.8 4.55478 10.8 3.6C10.8 2.64522 11.1793 1.72955 11.8544 1.05442C12.5295 0.379284 13.4452 0 14.4 0C15.3548 0 16.2705 0.379284 16.9456 1.05442C17.6207 1.72955 18 2.64522 18 3.6ZM14.4 18C15.3548 18 16.2705 17.6207 16.9456 16.9456C17.6207 16.2705 18 15.3548 18 14.4C18 13.4452 17.6207 12.5295 16.9456 11.8544C16.2705 11.1793 15.3548 10.8 14.4 10.8C13.4452 10.8 12.5295 11.1793 11.8544 11.8544C11.1793 12.5295 10.8 13.4452 10.8 14.4C10.8 15.3548 11.1793 16.2705 11.8544 16.9456C12.5295 17.6207 13.4452 18 14.4 18Z" fill="#F2DBE3"/>
</svg>
