<svg width="16" height="20" viewBox="0 0 16 20" fill="none" xmlns="http://www.w3.org/2000/svg">
<path d="M13.6 10.4C14.2365 10.4 14.847 10.6529 15.2971 11.1029C15.7471 11.553 16 12.1635 16 12.8V13.6C16 16.7536 13.024 20 8 20C2.976 20 0 16.7536 0 13.6V12.8C0 12.1635 0.252856 11.553 0.702944 11.1029C1.15303 10.6529 1.76348 10.4 2.4 10.4H13.6ZM8 0C9.16695 0 10.2861 0.46357 11.1113 1.28873C11.9364 2.11389 12.4 3.23305 12.4 4.4C12.4 5.56695 11.9364 6.68611 11.1113 7.51127C10.2861 8.33643 9.16695 8.8 8 8.8C6.83305 8.8 5.71389 8.33643 4.88873 7.51127C4.06357 6.68611 3.6 5.56695 3.6 4.4C3.6 3.23305 4.06357 2.11389 4.88873 1.28873C5.71389 0.46357 6.83305 0 8 0Z" fill="#FDAFC0"/>
</svg>
