<svg width="19" height="19" viewBox="0 0 19 19" fill="none" xmlns="http://www.w3.org/2000/svg">
<path fill-rule="evenodd" clip-rule="evenodd" d="M9.5 0C4.25315 0 0 4.25315 0 9.5C0 11.2955 0.49875 12.977 1.3661 14.4096L0.5187 17.29C0.470045 17.4554 0.466844 17.6308 0.509432 17.7978C0.55202 17.9649 0.638825 18.1174 0.760721 18.2393C0.882617 18.3612 1.0351 18.448 1.20215 18.4906C1.36919 18.5331 1.54462 18.5299 1.71 18.4813L4.5904 17.6339C6.0712 18.5297 7.76933 19.0022 9.5 19C14.7469 19 19 14.7468 19 9.5C19 4.25315 14.7469 0 9.5 0ZM7.3511 11.6498C9.27295 13.5707 11.1074 13.8244 11.7553 13.8481C12.7404 13.8842 13.6999 13.1318 14.0733 12.2588C14.12 12.1501 14.1369 12.0309 14.1222 11.9135C14.1075 11.7961 14.0618 11.6848 13.9897 11.5909C13.4691 10.9259 12.7652 10.4481 12.0773 9.9731C11.9338 9.87357 11.7573 9.8336 11.5849 9.86159C11.4125 9.88959 11.2577 9.98337 11.153 10.1232L10.583 10.9924C10.5529 11.039 10.5062 11.0724 10.4524 11.0858C10.3986 11.0992 10.3417 11.0916 10.2933 11.0646C9.9066 10.8433 9.34325 10.4671 8.93855 10.0624C8.53385 9.6577 8.18045 9.12 7.9819 8.75805C7.95788 8.71193 7.95109 8.65876 7.96276 8.60809C7.97443 8.55742 8.00378 8.51257 8.04555 8.4816L8.92335 7.8299C9.04899 7.72121 9.13009 7.56998 9.15113 7.4052C9.17217 7.24041 9.13165 7.07366 9.03735 6.9369C8.61175 6.3137 8.11585 5.5214 7.3967 4.99605C7.30369 4.92922 7.195 4.88755 7.08116 4.87507C6.96732 4.86259 6.85218 4.87972 6.7469 4.9248C5.8729 5.2991 5.1167 6.2586 5.1528 7.24565C5.17655 7.89355 5.4302 9.728 7.3511 11.6498Z" fill="#FDAFC0"/>
</svg>
