<svg width="11" height="8" viewBox="0 0 11 8" fill="none" xmlns="http://www.w3.org/2000/svg">
<path d="M6.96481 0.146447C7.16007 -0.0488155 7.47658 -0.0488155 7.67184 0.146447L10.8535 3.32809C11.0487 3.52335 11.0487 3.83986 10.8535 4.03512L7.67184 7.21676C7.47658 7.41202 7.16007 7.41202 6.96481 7.21676C6.76954 7.0215 6.76954 6.70499 6.96481 6.50973L9.29293 4.1816H1.70699L4.03512 6.50973C4.23038 6.70499 4.23038 7.0215 4.03512 7.21676C3.83986 7.41202 3.52335 7.41202 3.32809 7.21676L0.146447 4.03512C-0.0488155 3.83986 -0.0488155 3.52335 0.146447 3.32809L3.32809 0.146447C3.52335 -0.0488155 3.83986 -0.0488155 4.03512 0.146447C4.23038 0.341709 4.23038 0.658216 4.03512 0.853478L1.70699 3.1816H9.29293L6.96481 0.853478C6.76954 0.658216 6.76954 0.341709 6.96481 0.146447Z" fill="#FC6C5F"/>
</svg>
